# MagicaVoxel @ Ephtracy

# group
g Pillars-4

# material
mtllib Pillars-4.mtl
usemtl palette

# normals
vn -1 0 0
vn 1 0 0
vn 0 0 1
vn 0 0 -1
vn 0 -1 0
vn 0 1 0

# texcoords
vt 0.982422 0.5

# verts
v -5 0 5
v -5 0 -5
v -5 4 5
v -5 4 -0
v -5 4 -1
v -5 4 -5
v -5 36 5
v -5 36 -0
v -5 36 -1
v -5 36 -5
v -5 40 5
v -5 40 -5
v -4 4 4
v -4 4 -0
v -4 4 -1
v -4 4 -4
v -4 6 4
v -4 6 -0
v -4 6 -1
v -4 6 -4
v -4 34 4
v -4 34 -0
v -4 34 -1
v -4 34 -4
v -4 36 4
v -4 36 -0
v -4 36 -1
v -4 36 -4
v -3 6 3
v -3 6 -3
v -3 9 3
v -3 9 -3
v -3 31 3
v -3 31 -3
v -3 34 3
v -3 34 -3
v -2 9 2
v -2 9 -2
v -2 17 1
v -2 17 -1
v -2 18 2
v -2 18 1
v -2 18 -1
v -2 18 -2
v -2 22 2
v -2 22 1
v -2 22 -1
v -2 22 -2
v -2 23 1
v -2 23 -1
v -2 31 2
v -2 31 -2
v -1 17 1
v -1 17 -1
v -1 18 1
v -1 18 -1
v -1 22 1
v -1 22 -1
v -1 23 1
v -1 23 -1
v 0 6 4
v 0 6 3
v 0 6 -3
v 0 6 -4
v 0 9 3
v 0 9 -2
v 0 9 -3
v 0 17 -1
v 0 17 -2
v 0 23 -1
v 0 23 -2
v 0 31 3
v 0 31 -2
v 0 31 -3
v 0 34 4
v 0 34 3
v 0 34 -3
v 0 34 -4
v 1 9 3
v 1 9 2
v 1 17 2
v 1 17 1
v 1 23 2
v 1 23 1
v 1 31 3
v 1 31 2
v 2 4 5
v 2 4 4
v 2 4 -4
v 2 4 -5
v 2 36 5
v 2 36 4
v 2 36 -4
v 2 36 -5
v -4 6 -0
v -4 6 -1
v -4 34 -0
v -4 34 -1
v -1 17 2
v -1 17 1
v -1 17 -1
v -1 17 -2
v -1 18 2
v -1 18 1
v -1 18 -1
v -1 18 -2
v -1 22 2
v -1 22 1
v -1 22 -1
v -1 22 -2
v -1 23 2
v -1 23 1
v -1 23 -1
v -1 23 -2
v 5 0 5
v 5 0 -5
v 5 40 5
v 5 40 -5
v -5 0 5
v -5 4 5
v -5 36 5
v -5 40 5
v 2 4 5
v 2 36 5
v 5 0 5
v 5 40 5
v -4 4 4
v -4 6 4
v -4 34 4
v -4 36 4
v 0 6 4
v 0 34 4
v 2 4 4
v 2 36 4
v -3 6 3
v -3 9 3
v -3 31 3
v -3 34 3
v 0 6 3
v 0 9 3
v 0 31 3
v 0 34 3
v -2 9 2
v -2 18 2
v -2 22 2
v -2 31 2
v -1 17 2
v -1 18 2
v -1 22 2
v -1 23 2
v 1 9 2
v 1 17 2
v 1 23 2
v 1 31 2
v -1 17 1
v -1 18 1
v -1 22 1
v -1 23 1
v 1 17 1
v 1 23 1
v -5 4 -0
v -5 36 -0
v -4 4 -0
v -4 6 -0
v -4 34 -0
v -4 36 -0
v -2 17 -1
v -2 18 -1
v -2 22 -1
v -2 23 -1
v -1 17 -1
v -1 18 -1
v -1 22 -1
v -1 23 -1
v 0 9 3
v 0 31 3
v 1 9 3
v 1 31 3
v -2 17 1
v -2 18 1
v -2 22 1
v -2 23 1
v -1 17 1
v -1 18 1
v -1 22 1
v -1 23 1
v -5 4 -1
v -5 36 -1
v -4 4 -1
v -4 6 -1
v -4 34 -1
v -4 36 -1
v -1 17 -1
v -1 18 -1
v -1 22 -1
v -1 23 -1
v 0 17 -1
v 0 23 -1
v -2 9 -2
v -2 18 -2
v -2 22 -2
v -2 31 -2
v -1 17 -2
v -1 18 -2
v -1 22 -2
v -1 23 -2
v 0 9 -2
v 0 17 -2
v 0 23 -2
v 0 31 -2
v -3 6 -3
v -3 9 -3
v -3 31 -3
v -3 34 -3
v 0 6 -3
v 0 9 -3
v 0 31 -3
v 0 34 -3
v -4 4 -4
v -4 6 -4
v -4 34 -4
v -4 36 -4
v 0 6 -4
v 0 34 -4
v 2 4 -4
v 2 36 -4
v -5 0 -5
v -5 4 -5
v -5 36 -5
v -5 40 -5
v 2 4 -5
v 2 36 -5
v 5 0 -5
v 5 40 -5
v -5 0 5
v 5 0 5
v -5 0 -5
v 5 0 -5
v -2 22 2
v -1 22 2
v -2 22 1
v -1 22 1
v -2 22 -1
v -1 22 -1
v -2 22 -2
v -1 22 -2
v -1 23 2
v 1 23 2
v -2 23 1
v -1 23 1
v 1 23 1
v -2 23 -1
v -1 23 -1
v 0 23 -1
v -1 23 -2
v 0 23 -2
v -3 31 3
v 0 31 3
v 1 31 3
v -2 31 2
v 1 31 2
v -2 31 -2
v 0 31 -2
v -3 31 -3
v 0 31 -3
v -4 34 4
v 0 34 4
v -3 34 3
v 0 34 3
v -4 34 -0
v -4 34 -1
v -3 34 -3
v 0 34 -3
v -4 34 -4
v 0 34 -4
v -5 36 5
v 2 36 5
v -4 36 4
v 2 36 4
v -5 36 -0
v -4 36 -0
v -5 36 -1
v -4 36 -1
v -4 36 -4
v 2 36 -4
v -5 36 -5
v 2 36 -5
v -5 4 5
v 2 4 5
v -4 4 4
v 2 4 4
v -5 4 -0
v -4 4 -0
v -5 4 -1
v -4 4 -1
v -4 4 -4
v 2 4 -4
v -5 4 -5
v 2 4 -5
v -4 6 4
v 0 6 4
v -3 6 3
v 0 6 3
v -4 6 -0
v -4 6 -1
v -3 6 -3
v 0 6 -3
v -4 6 -4
v 0 6 -4
v -3 9 3
v 0 9 3
v 1 9 3
v -2 9 2
v 1 9 2
v -2 9 -2
v 0 9 -2
v -3 9 -3
v 0 9 -3
v -1 17 2
v 1 17 2
v -2 17 1
v -1 17 1
v 1 17 1
v -2 17 -1
v -1 17 -1
v 0 17 -1
v -1 17 -2
v 0 17 -2
v -2 18 2
v -1 18 2
v -2 18 1
v -1 18 1
v -2 18 -1
v -1 18 -1
v -2 18 -2
v -1 18 -2
v -5 40 5
v 5 40 5
v -5 40 -5
v 5 40 -5

# faces
f 3/1/1 2/1/1 1/1/1
f 4/1/1 2/1/1 3/1/1
f 5/1/1 2/1/1 4/1/1
f 6/1/1 2/1/1 5/1/1
f 8/1/1 5/1/1 4/1/1
f 9/1/1 5/1/1 8/1/1
f 11/1/1 8/1/1 7/1/1
f 11/1/1 10/1/1 9/1/1
f 11/1/1 9/1/1 8/1/1
f 12/1/1 10/1/1 11/1/1
f 17/1/1 14/1/1 13/1/1
f 18/1/1 14/1/1 17/1/1
f 19/1/1 16/1/1 15/1/1
f 20/1/1 16/1/1 19/1/1
f 25/1/1 22/1/1 21/1/1
f 26/1/1 22/1/1 25/1/1
f 27/1/1 24/1/1 23/1/1
f 28/1/1 24/1/1 27/1/1
f 31/1/1 30/1/1 29/1/1
f 32/1/1 30/1/1 31/1/1
f 35/1/1 34/1/1 33/1/1
f 36/1/1 34/1/1 35/1/1
f 39/1/1 38/1/1 37/1/1
f 40/1/1 38/1/1 39/1/1
f 41/1/1 39/1/1 37/1/1
f 42/1/1 39/1/1 41/1/1
f 43/1/1 38/1/1 40/1/1
f 44/1/1 38/1/1 43/1/1
f 49/1/1 46/1/1 45/1/1
f 50/1/1 48/1/1 47/1/1
f 51/1/1 49/1/1 45/1/1
f 51/1/1 50/1/1 49/1/1
f 52/1/1 48/1/1 50/1/1
f 52/1/1 50/1/1 51/1/1
f 55/1/1 54/1/1 53/1/1
f 56/1/1 54/1/1 55/1/1
f 57/1/1 56/1/1 55/1/1
f 58/1/1 56/1/1 57/1/1
f 59/1/1 58/1/1 57/1/1
f 60/1/1 58/1/1 59/1/1
f 65/1/1 62/1/1 61/1/1
f 67/1/1 64/1/1 63/1/1
f 69/1/1 67/1/1 66/1/1
f 70/1/1 69/1/1 68/1/1
f 71/1/1 67/1/1 69/1/1
f 71/1/1 69/1/1 70/1/1
f 72/1/1 65/1/1 61/1/1
f 73/1/1 67/1/1 71/1/1
f 74/1/1 64/1/1 67/1/1
f 74/1/1 67/1/1 73/1/1
f 75/1/1 72/1/1 61/1/1
f 76/1/1 72/1/1 75/1/1
f 77/1/1 64/1/1 74/1/1
f 78/1/1 64/1/1 77/1/1
f 81/1/1 80/1/1 79/1/1
f 83/1/1 81/1/1 79/1/1
f 83/1/1 82/1/1 81/1/1
f 84/1/1 82/1/1 83/1/1
f 85/1/1 83/1/1 79/1/1
f 86/1/1 83/1/1 85/1/1
f 91/1/1 88/1/1 87/1/1
f 92/1/1 88/1/1 91/1/1
f 93/1/1 90/1/1 89/1/1
f 94/1/1 90/1/1 93/1/1
f 95/1/2 96/1/2 97/1/2
f 97/1/2 96/1/2 98/1/2
f 99/1/2 100/1/2 103/1/2
f 103/1/2 100/1/2 104/1/2
f 101/1/2 102/1/2 105/1/2
f 105/1/2 102/1/2 106/1/2
f 107/1/2 108/1/2 111/1/2
f 111/1/2 108/1/2 112/1/2
f 109/1/2 110/1/2 113/1/2
f 113/1/2 110/1/2 114/1/2
f 115/1/2 116/1/2 117/1/2
f 117/1/2 116/1/2 118/1/2
f 123/1/3 120/1/3 119/1/3
f 124/1/3 122/1/3 121/1/3
f 125/1/3 123/1/3 119/1/3
f 125/1/3 124/1/3 123/1/3
f 126/1/3 122/1/3 124/1/3
f 126/1/3 124/1/3 125/1/3
f 131/1/3 128/1/3 127/1/3
f 132/1/3 130/1/3 129/1/3
f 133/1/3 131/1/3 127/1/3
f 133/1/3 132/1/3 131/1/3
f 134/1/3 130/1/3 132/1/3
f 134/1/3 132/1/3 133/1/3
f 139/1/3 136/1/3 135/1/3
f 140/1/3 136/1/3 139/1/3
f 141/1/3 138/1/3 137/1/3
f 142/1/3 138/1/3 141/1/3
f 147/1/3 144/1/3 143/1/3
f 148/1/3 144/1/3 147/1/3
f 149/1/3 146/1/3 145/1/3
f 150/1/3 146/1/3 149/1/3
f 151/1/3 147/1/3 143/1/3
f 152/1/3 147/1/3 151/1/3
f 153/1/3 146/1/3 150/1/3
f 154/1/3 146/1/3 153/1/3
f 159/1/3 156/1/3 155/1/3
f 159/1/3 158/1/3 157/1/3
f 159/1/3 157/1/3 156/1/3
f 160/1/3 158/1/3 159/1/3
f 163/1/3 162/1/3 161/1/3
f 164/1/3 162/1/3 163/1/3
f 165/1/3 162/1/3 164/1/3
f 166/1/3 162/1/3 165/1/3
f 171/1/3 168/1/3 167/1/3
f 172/1/3 168/1/3 171/1/3
f 173/1/3 170/1/3 169/1/3
f 174/1/3 170/1/3 173/1/3
f 175/1/4 176/1/4 177/1/4
f 177/1/4 176/1/4 178/1/4
f 179/1/4 180/1/4 183/1/4
f 183/1/4 180/1/4 184/1/4
f 181/1/4 182/1/4 185/1/4
f 185/1/4 182/1/4 186/1/4
f 187/1/4 188/1/4 189/1/4
f 189/1/4 188/1/4 190/1/4
f 190/1/4 188/1/4 191/1/4
f 191/1/4 188/1/4 192/1/4
f 193/1/4 194/1/4 197/1/4
f 195/1/4 196/1/4 197/1/4
f 194/1/4 195/1/4 197/1/4
f 197/1/4 196/1/4 198/1/4
f 199/1/4 200/1/4 203/1/4
f 203/1/4 200/1/4 204/1/4
f 201/1/4 202/1/4 205/1/4
f 205/1/4 202/1/4 206/1/4
f 199/1/4 203/1/4 207/1/4
f 207/1/4 203/1/4 208/1/4
f 206/1/4 202/1/4 209/1/4
f 209/1/4 202/1/4 210/1/4
f 211/1/4 212/1/4 215/1/4
f 215/1/4 212/1/4 216/1/4
f 213/1/4 214/1/4 217/1/4
f 217/1/4 214/1/4 218/1/4
f 219/1/4 220/1/4 223/1/4
f 221/1/4 222/1/4 224/1/4
f 219/1/4 223/1/4 225/1/4
f 223/1/4 224/1/4 225/1/4
f 224/1/4 222/1/4 226/1/4
f 225/1/4 224/1/4 226/1/4
f 227/1/4 228/1/4 231/1/4
f 229/1/4 230/1/4 232/1/4
f 227/1/4 231/1/4 233/1/4
f 231/1/4 232/1/4 233/1/4
f 232/1/4 230/1/4 234/1/4
f 233/1/4 232/1/4 234/1/4
f 237/1/5 236/1/5 235/1/5
f 238/1/5 236/1/5 237/1/5
f 241/1/5 240/1/5 239/1/5
f 242/1/5 240/1/5 241/1/5
f 245/1/5 244/1/5 243/1/5
f 246/1/5 244/1/5 245/1/5
f 250/1/5 248/1/5 247/1/5
f 251/1/5 248/1/5 250/1/5
f 252/1/5 250/1/5 249/1/5
f 253/1/5 250/1/5 252/1/5
f 255/1/5 254/1/5 253/1/5
f 256/1/5 254/1/5 255/1/5
f 260/1/5 258/1/5 257/1/5
f 260/1/5 259/1/5 258/1/5
f 261/1/5 259/1/5 260/1/5
f 262/1/5 260/1/5 257/1/5
f 264/1/5 262/1/5 257/1/5
f 264/1/5 263/1/5 262/1/5
f 265/1/5 263/1/5 264/1/5
f 268/1/5 267/1/5 266/1/5
f 269/1/5 267/1/5 268/1/5
f 270/1/5 268/1/5 266/1/5
f 271/1/5 268/1/5 270/1/5
f 272/1/5 268/1/5 271/1/5
f 274/1/5 272/1/5 271/1/5
f 274/1/5 273/1/5 272/1/5
f 275/1/5 273/1/5 274/1/5
f 278/1/5 277/1/5 276/1/5
f 279/1/5 277/1/5 278/1/5
f 280/1/5 278/1/5 276/1/5
f 281/1/5 278/1/5 280/1/5
f 284/1/5 283/1/5 282/1/5
f 286/1/5 284/1/5 282/1/5
f 286/1/5 285/1/5 284/1/5
f 287/1/5 285/1/5 286/1/5
f 288/1/6 289/1/6 290/1/6
f 290/1/6 289/1/6 291/1/6
f 288/1/6 290/1/6 292/1/6
f 292/1/6 290/1/6 293/1/6
f 294/1/6 295/1/6 296/1/6
f 294/1/6 296/1/6 298/1/6
f 296/1/6 297/1/6 298/1/6
f 298/1/6 297/1/6 299/1/6
f 300/1/6 301/1/6 302/1/6
f 302/1/6 301/1/6 303/1/6
f 300/1/6 302/1/6 304/1/6
f 304/1/6 302/1/6 305/1/6
f 305/1/6 302/1/6 306/1/6
f 305/1/6 306/1/6 308/1/6
f 306/1/6 307/1/6 308/1/6
f 308/1/6 307/1/6 309/1/6
f 310/1/6 311/1/6 313/1/6
f 311/1/6 312/1/6 313/1/6
f 313/1/6 312/1/6 314/1/6
f 310/1/6 313/1/6 315/1/6
f 310/1/6 315/1/6 317/1/6
f 315/1/6 316/1/6 317/1/6
f 317/1/6 316/1/6 318/1/6
f 319/1/6 320/1/6 322/1/6
f 322/1/6 320/1/6 323/1/6
f 321/1/6 322/1/6 324/1/6
f 324/1/6 322/1/6 325/1/6
f 325/1/6 326/1/6 327/1/6
f 327/1/6 326/1/6 328/1/6
f 329/1/6 330/1/6 331/1/6
f 331/1/6 330/1/6 332/1/6
f 333/1/6 334/1/6 335/1/6
f 335/1/6 334/1/6 336/1/6
f 337/1/6 338/1/6 339/1/6
f 339/1/6 338/1/6 340/1/6
